<?xml version="1.0" encoding="UTF-8" standalone="no"?>
<!-- Created with Inkscape (http://www.inkscape.org/) -->

<svg
   xmlns:dc="http://purl.org/dc/elements/1.1/"
   xmlns:cc="http://creativecommons.org/ns#"
   xmlns:rdf="http://www.w3.org/1999/02/22-rdf-syntax-ns#"
   xmlns:svg="http://www.w3.org/2000/svg"
   xmlns="http://www.w3.org/2000/svg"
   xmlns:xlink="http://www.w3.org/1999/xlink"
   xmlns:sodipodi="http://sodipodi.sourceforge.net/DTD/sodipodi-0.dtd"
   xmlns:inkscape="http://www.inkscape.org/namespaces/inkscape"
   width="48px"
   height="48px"
   id="svg3873"
   version="1.1"
   inkscape:version="0.48.0 r9654"
   sodipodi:docname="chatbubble.svg"
   inkscape:export-filename="/home/zaid/peerpalette/images/chatbubble.png"
   inkscape:export-xdpi="28.379635"
   inkscape:export-ydpi="28.379635">
  <defs
     id="defs3875">
    <radialGradient
       inkscape:collect="always"
       xlink:href="#linearGradient3844"
       id="radialGradient3852"
       cx="298.11508"
       cy="616.39209"
       fx="298.11508"
       fy="616.39209"
       r="83.702682"
       gradientTransform="matrix(1,0,0,0.83316654,-140,-382.87947)"
       gradientUnits="userSpaceOnUse" />
    <linearGradient
       id="linearGradient3844">
      <stop
         style="stop-color:#ffffff;stop-opacity:1;"
         offset="0"
         id="stop3846" />
      <stop
         style="stop-color:#e6e6e6;stop-opacity:1;"
         offset="1"
         id="stop3848" />
    </linearGradient>
    <radialGradient
       r="83.702682"
       fy="616.39209"
       fx="298.11508"
       cy="616.39209"
       cx="298.11508"
       gradientTransform="matrix(0.2414329,0,0,0.20115381,-47.79315,-99.764513)"
       gradientUnits="userSpaceOnUse"
       id="radialGradient3898"
       xlink:href="#linearGradient3844"
       inkscape:collect="always" />
  </defs>
  <sodipodi:namedview
     id="base"
     pagecolor="#ffffff"
     bordercolor="#666666"
     borderopacity="1.0"
     inkscape:pageopacity="0.0"
     inkscape:pageshadow="2"
     inkscape:zoom="4.9497475"
     inkscape:cx="29.529149"
     inkscape:cy="13.011297"
     inkscape:current-layer="layer1"
     showgrid="true"
     inkscape:grid-bbox="true"
     inkscape:document-units="px"
     inkscape:window-width="1366"
     inkscape:window-height="691"
     inkscape:window-x="0"
     inkscape:window-y="24"
     inkscape:window-maximized="1" />
  <metadata
     id="metadata3878">
    <rdf:RDF>
      <cc:Work
         rdf:about="">
        <dc:format>image/svg+xml</dc:format>
        <dc:type
           rdf:resource="http://purl.org/dc/dcmitype/StillImage" />
        <dc:title></dc:title>
      </cc:Work>
    </rdf:RDF>
  </metadata>
  <g
     id="layer1"
     inkscape:label="Layer 1"
     inkscape:groupmode="layer">
    <path
       style="fill:url(#radialGradient3898);fill-opacity:1;stroke:none"
       d="m 24.868234,7.3879946 c -5.795022,0.025034 -11.592032,0.00853 -17.3853248,0.1482009 -1.2820986,0.05298 -2.7949483,0.653911 -3.1122226,2.034396 -0.4768492,2.0927335 -0.337255,4.2631525 -0.3976282,6.3968905 0.017358,4.957737 -0.032473,9.91794 0.1143596,14.873817 -0.017161,1.37893 0.4947515,2.827961 1.6790528,3.621668 0.9296447,0.610168 2.118808,0.470823 3.1762793,0.615991 0.8578015,0.102528 1.7811999,0.02962 2.5954759,0.294771 0.219277,1.284356 -0.192726,2.607248 -0.676335,3.791252 -0.187927,0.545711 -0.758701,1.178212 -0.31257,1.737993 0.585524,0.454387 1.21462,-0.191197 1.78398,-0.356721 1.970783,-0.838179 3.974688,-1.956966 5.053378,-3.891097 0.312565,-0.406714 0.403838,-1.011097 0.799034,-1.338012 1.928738,-0.228204 3.906491,-0.129403 5.855118,-0.204278 5.665353,-0.108534 11.336271,-0.04714 16.997477,-0.299607 0.832513,0.01999 1.661741,-0.276428 2.187985,-0.943097 1.18709,-1.19329 1.005269,-2.999558 1.086827,-4.540261 0.05496,-5.56265 0.144585,-11.12835 -0.0057,-16.690043 C 44.188804,11.310237 44.306969,9.8053185 43.449933,8.6921635 42.733623,7.8543775 41.622322,7.5008235 40.54544,7.5404445 35.32244,7.35993 30.093645,7.3942935 24.868225,7.3879946 z"
       id="path3842"
       inkscape:connector-curvature="0" />
    <path
       id="path3896"
       style="fill:#0f4482;fill-opacity:1"
       d="M 5.6158358,43.243613 C 4.9491525,42.506939 5.2018003,42.003076 6.7773502,40.927174 8.1681947,39.977403 9.3726624,38.553545 9.6711528,37.506265 9.8059229,37.033418 9.6997764,36.988746 8.128498,36.857015 6.0625956,36.683817 4.5802549,36.05796 3.6650969,34.972528 2.3042938,33.358541 2.3214183,33.533639 2.3214183,21.234465 2.3214183,8.8457655 2.3189783,8.8689795 3.722466,7.390324 4.0805904,7.0129961 4.8081775,6.4697719 5.3393295,6.18316 6.2996296,5.6649767 6.4025571,5.6616719 23.639498,5.5955118 c 11.274486,-0.043274 17.655231,0.019846 18.252074,0.1805607 1.292521,0.34804 2.421314,1.1700636 3.275214,2.385116 0.73327,1.043402 0.73327,1.043402 0.73327,13.0515185 0,12.008116 0,12.008116 -0.666002,13.01443 -0.808634,1.221825 -2.103112,2.109745 -3.559074,2.441274 -0.648526,0.147671 -5.36834,0.251906 -11.709494,0.258598 -10.623048,0.0112 -10.623048,0.0112 -11.347347,1.103039 -1.790669,2.69931 -6.290203,4.915557 -11.2338142,5.53322 -1.1502255,0.143713 -1.3880538,0.100723 -1.768489,-0.319655 z m 7.2840952,-3.550852 c 2.120665,-0.978827 3.525476,-2.202928 4.175802,-3.638635 0.247684,-0.546808 0.5949,-1.114175 0.771591,-1.260816 0.222282,-0.18448 3.973445,-0.287281 12.175893,-0.333685 11.854635,-0.06706 11.854635,-0.06706 12.508612,-0.670649 1.304971,-1.204411 1.316048,-1.309943 1.316048,-12.541872 0,-11.570022 -0.03545,-11.8605965 -1.561813,-12.8039435 C 41.513882,7.9659265 41.131708,7.9556775 24.142598,7.9565615 7.5888518,7.9575065 6.7536075,7.9783835 6.0443044,8.4109235 4.5052299,9.3494485 4.494315,9.4387955 4.494315,21.097634 c 0,11.392947 0.00961,11.485761 1.315336,12.690516 0.5918843,0.546119 0.9019477,0.614176 3.2997432,0.724299 1.9806798,0.09096 2.7080228,0.212651 2.8911298,0.483691 0.405323,0.599968 0.07905,2.988456 -0.590269,4.321036 -0.340317,0.677557 -0.5618,1.231921 -0.492183,1.231921 0.06961,0 0.961453,-0.385351 1.981859,-0.856336 z"
       inkscape:connector-curvature="0" />
  </g>
</svg>
