<?xml version="1.0" encoding="UTF-8" standalone="no"?>
<!-- Created with Inkscape (http://www.inkscape.org/) -->

<svg
   xmlns:dc="http://purl.org/dc/elements/1.1/"
   xmlns:cc="http://creativecommons.org/ns#"
   xmlns:rdf="http://www.w3.org/1999/02/22-rdf-syntax-ns#"
   xmlns:svg="http://www.w3.org/2000/svg"
   xmlns="http://www.w3.org/2000/svg"
   xmlns:sodipodi="http://sodipodi.sourceforge.net/DTD/sodipodi-0.dtd"
   xmlns:inkscape="http://www.inkscape.org/namespaces/inkscape"
   width="240"
   height="40"
   id="svg2"
   version="1.1"
   inkscape:version="0.47 r22583"
   sodipodi:docname="peerpalette.svg"
   inkscape:export-filename="/home/zaid/peerpalette.com/images/peerpalette.png"
   inkscape:export-xdpi="90"
   inkscape:export-ydpi="90">
  <defs
     id="defs4">
    <inkscape:perspective
       sodipodi:type="inkscape:persp3d"
       inkscape:vp_x="0 : 526.18109 : 1"
       inkscape:vp_y="0 : 1000 : 0"
       inkscape:vp_z="744.09448 : 526.18109 : 1"
       inkscape:persp3d-origin="372.04724 : 350.78739 : 1"
       id="perspective10" />
    <filter
       id="filter5072"
       y="-0.25"
       height="1.5"
       inkscape:menu-tooltip="Darkens the edge with an inner blur and adds a flexible glow"
       inkscape:menu="Shadows and Glows"
       inkscape:label="Dark and Glow"
       color-interpolation-filters="sRGB">
      <feGaussianBlur
         id="feGaussianBlur5074"
         stdDeviation="5"
         result="result6" />
      <feComposite
         id="feComposite5076"
         in2="result6"
         result="result8"
         in="SourceGraphic"
         operator="atop" />
      <feComposite
         id="feComposite5078"
         in2="SourceAlpha"
         result="result9"
         operator="over"
         in="result8" />
      <feColorMatrix
         id="feColorMatrix5080"
         values="1 0 0 0 0 0 1 0 0 0 0 0 1 0 0 0 0 0 1 0 "
         result="result10" />
      <feBlend
         id="feBlend5082"
         in2="result6"
         in="result10"
         mode="normal" />
    </filter>
    <filter
       id="filter2898"
       inkscape:label="Glow"
       inkscape:menu="Shadows and Glows"
       inkscape:menu-tooltip="Glow of object's own color at the edges"
       color-interpolation-filters="sRGB">
      <feGaussianBlur
         id="feGaussianBlur2900"
         stdDeviation="5"
         result="result91" />
      <feComposite
         id="feComposite2902"
         in2="result91"
         in="SourceGraphic"
         operator="over" />
    </filter>
    <inkscape:perspective
       id="perspective3643"
       inkscape:persp3d-origin="0.5 : 0.33333333 : 1"
       inkscape:vp_z="1 : 0.5 : 1"
       inkscape:vp_y="0 : 1000 : 0"
       inkscape:vp_x="0 : 0.5 : 1"
       sodipodi:type="inkscape:persp3d" />
  </defs>
  <sodipodi:namedview
     id="base"
     pagecolor="#ffffff"
     bordercolor="#666666"
     borderopacity="1.0"
     inkscape:pageopacity="0"
     inkscape:pageshadow="2"
     inkscape:zoom="1.8770833"
     inkscape:cx="135.44154"
     inkscape:cy="33.442207"
     inkscape:document-units="px"
     inkscape:current-layer="layer1"
     showgrid="false"
     inkscape:window-width="1366"
     inkscape:window-height="693"
     inkscape:window-x="0"
     inkscape:window-y="24"
     inkscape:window-maximized="1" />
  <metadata
     id="metadata7">
    <rdf:RDF>
      <cc:Work
         rdf:about="">
        <dc:format>image/svg+xml</dc:format>
        <dc:type
           rdf:resource="http://purl.org/dc/dcmitype/StillImage" />
        <dc:title></dc:title>
      </cc:Work>
    </rdf:RDF>
  </metadata>
  <g
     inkscape:label="Layer 1"
     inkscape:groupmode="layer"
     id="layer1"
     transform="translate(0,-1012.3622)">
    <text
       xml:space="preserve"
       style="font-size:24px;font-style:normal;font-weight:normal;fill:#0f4482;fill-opacity:1;stroke:none;font-family:Bitstream Vera Sans;-inkscape-font-specification:Quicksand"
       x="53.571426"
       y="1040.2822"
       id="text2894"><tspan
         sodipodi:role="line"
         id="tspan2896"
         x="53.571426"
         y="1040.2822"
         style="font-size:32px;font-style:normal;font-weight:normal;fill:#0f4482;fill-opacity:1;font-family:Quicksand;-inkscape-font-specification:Quicksand">peerpalette</tspan></text>
    <g
       id="g2933"
       transform="translate(-10,10.16788)">
      <path
         id="path3633-1"
         d="m 25.819223,1037.1679 0,-3.6851 0.28125,-0.055 c 0.154688,-0.03 0.7875,-0.1232 1.40625,-0.2065 3.205918,-0.4314 6.9113,-1.7449 9.328678,-3.307 1.337766,-0.8644 2.721821,-2.3024 3.244582,-3.3711 0.379213,-0.7752 0.426377,-0.9841 0.423477,-1.875 -0.0019,-0.573 -0.06956,-1.1098 -0.157968,-1.2526 -0.137137,-0.2217 -0.144236,-0.2075 -0.06253,0.125 0.0507,0.2062 0.09058,0.748 0.08862,1.204 -0.01282,2.9916 -4.127663,6.1873 -9.943014,7.722 -5.036779,1.3292 -8.891287,1.122 -12.396305,-0.6665 -2.944684,-1.5026 -4.749626,-3.7438 -5.48432,-6.8099 -0.360633,-1.5051 -0.272883,-3.8281 0.205828,-5.449 1.42951,-4.8401 5.661845,-9.3506 11.543384,-12.3021 4.549161,-2.2829 9.123587,-3.4064 13.95956,-3.4286 5.857532,-0.027 10.54777,1.6398 13.819369,4.9108 2.452046,2.4516 3.743051,5.5397 3.74311,8.9535 5.6e-5,3.2983 -1.204355,6.7028 -3.534415,9.9908 -1.171294,1.6528 -4.102991,4.5829 -5.965564,5.9624 -5.153366,3.8166 -11.366407,6.2734 -17.8125,7.0437 -0.825,0.099 -1.767187,0.1797 -2.09375,0.1803 l -0.59375,0 0,-3.6851 z"
         style="fill:#ffffff;fill-opacity:1;stroke:none" />
      <path
         transform="matrix(-0.10153918,-0.09313317,0.1488862,-0.10153918,22.790287,1094.045)"
         d="m 361.03536,365.44897 c -49.02223,-19.51488 -19.71042,-88.98415 10.87393,-109.34834 48.86427,-32.53564 115.08242,-10.30209 142.98337,38.86123 32.9104,57.99027 7.30819,132.43813 -50.42459,163.17349 -64.44289,34.30763 -145.69901,5.84837 -178.65341,-58.22529 -27.91052,-54.26677 -16.04092,-121.90476 27.04242,-164.69069"
         sodipodi:t0="0.039999999"
         sodipodi:argument="-16.451719"
         sodipodi:radius="145.58818"
         sodipodi:revolution="1.25"
         sodipodi:expansion="0.30000001"
         sodipodi:cy="342.36218"
         sodipodi:cx="411.42856"
         id="path2816"
         style="fill:none;stroke:#0f4482;stroke-width:9.64706039;stroke-linecap:round;stroke-linejoin:miter;stroke-miterlimit:4;stroke-opacity:1;stroke-dasharray:none"
         sodipodi:type="spiral" />
      <path
         sodipodi:nodetypes="ccccc"
         id="path3633"
         d="m 38.624639,1014.6382 c -2.813315,-1.1229 -6.163143,-0.9024 -8.465717,0.3927 -0.2489,1.8369 -0.15685,3.5884 0.523651,5.1929 2.006045,1.0133 4.236225,1.6157 6.938396,1.3528 1.023379,-1.9949 1.490621,-4.2464 1.00367,-6.9384 z"
         style="fill:none;stroke:#0f4482;stroke-width:1.5;stroke-linecap:round;stroke-linejoin:round;stroke-miterlimit:4;stroke-opacity:1;stroke-dasharray:none" />
      <path
         style="fill:none;stroke:#0f4482;stroke-width:1.5;stroke-linecap:round;stroke-linejoin:round;stroke-miterlimit:4;stroke-opacity:1;stroke-dasharray:none"
         d="m 17.472026,1014.7321 c 2.813315,-1.123 6.163143,-0.9024 8.465717,0.3927 0.2489,1.8368 0.15685,3.5884 -0.523651,5.1929 -2.006044,1.0133 -4.236225,1.6157 -6.938396,1.3528 -1.023379,-1.9949 -1.490621,-4.2465 -1.00367,-6.9384 z"
         id="path3635"
         sodipodi:nodetypes="ccccc" />
      <path
         sodipodi:nodetypes="cc"
         id="path3637"
         d="m 26.153782,1016.8166 c 1.586367,-1.5177 2.757218,-0.9578 3.84847,0"
         style="fill:none;stroke:#0f4482;stroke-width:1.5;stroke-linecap:round;stroke-linejoin:round;stroke-miterlimit:4;stroke-opacity:1;stroke-dasharray:none" />
      <path
         sodipodi:nodetypes="ccc"
         id="path3643"
         d="m 39.107169,1017.4737 c 4.699949,-1.6887 8.499202,-2.6568 10.700621,-2.3466 0.809103,0.8806 1.477749,2.4758 1.032519,4.5994"
         style="fill:none;stroke:#0f4482;stroke-width:1.5;stroke-linecap:round;stroke-linejoin:round;stroke-miterlimit:4;stroke-opacity:1;stroke-dasharray:none" />
      <path
         sodipodi:nodetypes="cc"
         id="path3603"
         d="m 26.045992,1041.0057 0,-7.5097"
         style="fill:none;stroke:#0f4482;stroke-width:1;stroke-linecap:round;stroke-linejoin:round;stroke-miterlimit:4;stroke-opacity:1;stroke-dasharray:none" />
    </g>
  </g>
</svg>
